<svg xmlns:xlink="http://www.w3.org/1999/xlink" width="56.002" xmlns="http://www.w3.org/2000/svg" height="56.002" id="screenshot-c6f16b49-3f5a-80a6-8004-101c64eb2194" viewBox="0 0 56.002 56.002" style="-webkit-print-color-adjust: exact;" fill="none" version="1.1"><g id="shape-c6f16b49-3f5a-80a6-8004-101c64eb2194" rx="0" ry="0" style="fill: rgb(0, 0, 0);"><g id="shape-c6f16b49-3f5a-80a6-8004-101c64eb2195"><defs><linearGradient x1="7.937" y1="15.081" x2="7.937" y2="1.852" id="rumext-id-2-b" gradientTransform="matrix(1.000000, 0.000000, 0.000000, 1.000000, -4.000000, -3.969000) scale(3.7796)" gradientUnits="userSpaceOnUse"><stop offset="0" stop-color="#f1efeb"/><stop offset="1" stop-color="#fdfcfc"/></linearGradient></defs><g class="fills" id="fills-c6f16b49-3f5a-80a6-8004-101c64eb2195"><rect rx="13.002" ry="13.002" x="0" y="0" transform="matrix(1.000000, 0.000000, 0.000000, 1.000000, 0.000000, 0.000000)" width="56.00199999999995" height="56.00200000000001" style="fill: #ffffff; fill-opacity: 1;"/></g></g><g id="shape-c6f16b49-3f5a-80a6-8004-101c64eb2196" rx="0" ry="0"><g id="shape-c6f16b49-3f5a-80a6-8004-101c64eb2197"><defs><linearGradient id="fill-color-gradient_rumext-id-4_0" x1="0.5" y1="0" x2="0.5" y2="1" gradientTransform="matrix(1.000000, 0.000000, 0.000000, 1.000000, 0.000000, 0.000000)"><stop offset="0" stop-color="#fdcd00" stop-opacity="1"/><stop offset="1" stop-color="#ff0107" stop-opacity="0.796875"/></linearGradient><pattern patternUnits="userSpaceOnUse" x="14" y="9.531000000000006" height="37" width="28" data-loading="false" patternTransform="matrix(1.000000, 0.000000, 0.000000, 1.000000, 0.000000, 0.000000)" id="fill-0-rumext-id-4"><g><rect width="28" height="37" style="fill: url(&quot;#fill-color-gradient_rumext-id-4_0&quot;);"/></g></pattern></defs><g class="fills" id="fills-c6f16b49-3f5a-80a6-8004-101c64eb2197"><path rx="0" ry="0" d="M24.108,15.250C25.324,14.565,26.630,14.129,28.059,14.139C29.484,14.149,30.783,14.602,31.999,15.295C32.146,14.558,32.261,13.844,32.435,13.144C32.666,12.211,33.025,11.325,33.646,10.575C34.276,9.813,35.055,9.378,36.079,9.594C36.690,9.723,37.154,10.094,37.534,10.574C38.258,11.488,38.595,12.567,38.810,13.689C39.129,15.356,39.158,17.036,38.867,18.706C38.800,19.092,38.893,19.284,39.149,19.520C39.888,20.200,40.633,20.892,41.071,21.817C41.708,23.162,42.057,24.578,41.992,26.081C41.932,27.485,41.533,28.777,40.772,29.960C40.722,30.037,40.715,30.190,40.757,30.272C41.640,31.989,41.981,33.816,41.850,35.733C41.754,37.135,41.365,38.448,40.601,39.641C40.545,39.727,40.514,39.896,40.561,39.971C41.134,40.889,41.369,41.912,41.493,42.965C41.616,44.008,41.608,45.050,41.380,46.083C41.283,46.521,41.294,46.524,40.846,46.524C40.359,46.524,39.871,46.513,39.385,46.530C39.137,46.538,39.094,46.411,39.111,46.218C39.120,46.120,39.145,46.021,39.178,45.928C39.569,44.818,39.466,43.696,39.273,42.569C39.149,41.848,38.842,41.204,38.456,40.598C38.034,39.934,38.108,39.347,38.593,38.741C39.375,37.765,39.674,36.604,39.735,35.379C39.819,33.704,39.443,32.138,38.526,30.724C38.198,30.219,38.260,29.604,38.664,29.180C39.334,28.478,39.648,27.581,39.812,26.632C40.213,24.310,39.018,21.740,36.975,20.570C36.061,20.047,35.083,19.822,34.024,19.973C33.491,20.048,33.238,20.023,32.958,19.394C32.263,17.834,30.973,16.943,29.380,16.474C27.319,15.867,24.779,16.785,23.550,18.565C23.326,18.889,23.142,19.245,22.969,19.601C22.840,19.868,22.654,20.000,22.365,19.994C21.870,19.982,21.367,19.903,20.882,19.966C18.969,20.217,17.633,21.312,16.806,23.003C15.832,24.995,15.864,26.976,17.104,28.874C17.173,28.980,17.266,29.075,17.365,29.155C17.837,29.544,17.953,30.105,17.619,30.619C16.969,31.622,16.565,32.713,16.418,33.895C16.195,35.693,16.435,37.389,17.585,38.865C17.994,39.390,18.051,39.934,17.686,40.492C16.977,41.574,16.654,42.772,16.664,44.051C16.669,44.611,16.783,45.171,16.854,45.729C16.868,45.837,16.916,45.939,16.943,46.045C17.045,46.454,16.993,46.524,16.585,46.524C16.098,46.524,15.610,46.509,15.124,46.530C14.880,46.541,14.776,46.439,14.748,46.224C14.672,45.654,14.558,45.084,14.537,44.512C14.488,43.177,14.664,41.872,15.186,40.629C15.221,40.547,15.245,40.451,15.302,40.388C15.655,39.994,15.523,39.663,15.274,39.246C14.458,37.876,14.192,36.355,14.217,34.776C14.241,33.209,14.603,31.725,15.307,30.323C15.348,30.241,15.336,30.089,15.286,30.007C13.539,27.150,13.616,24.285,15.249,21.418C15.698,20.629,16.393,20.047,17.037,19.427C17.229,19.243,17.281,19.095,17.236,18.806C16.887,16.555,16.944,14.323,17.703,12.148C17.937,11.477,18.266,10.852,18.767,10.334C19.790,9.277,21.153,9.261,22.198,10.301C22.886,10.987,23.287,11.845,23.543,12.762C23.769,13.571,23.919,14.402,24.108,15.250ZZM19.255,18.064C20.058,17.970,20.842,17.882,21.626,17.783C21.697,17.774,21.773,17.706,21.822,17.645C22.064,17.347,22.008,16.995,22.001,16.647C21.978,15.467,21.843,14.303,21.442,13.190C21.285,12.756,21.058,12.339,20.808,11.950C20.579,11.593,20.424,11.602,20.191,11.950C20.010,12.220,19.841,12.510,19.731,12.814C19.108,14.535,19.038,16.307,19.255,18.064ZZM36.827,18.095C37.036,16.628,36.979,15.149,36.633,13.683C36.484,13.052,36.282,12.438,35.880,11.914C35.654,11.620,35.514,11.599,35.314,11.911C35.055,12.318,34.812,12.748,34.648,13.199C34.184,14.465,34.091,15.795,34.076,17.130C34.072,17.542,34.316,17.779,34.709,17.789C34.788,17.791,34.867,17.798,34.945,17.810C35.569,17.903,36.192,17.998,36.827,18.095ZZ" fill="url(#fill-0-rumext-id-4)"/></g></g><g id="shape-c6f16b49-3f5a-80a6-8004-101c64eb2198"><defs><linearGradient id="fill-color-gradient_rumext-id-5_0" x1="0.5" y1="0" x2="0.5" y2="1" gradientTransform="matrix(1.000000, 0.000000, 0.000000, 1.000000, 0.000000, 0.000000)"><stop offset="0" stop-color="#fdcd00" stop-opacity="1"/><stop offset="1" stop-color="#ff0107" stop-opacity="0.796875"/></linearGradient><pattern patternUnits="userSpaceOnUse" x="22.65463045181764" y="25.284247667557878" height="8.924415454715373" width="11.453138542314264" data-loading="false" patternTransform="matrix(1.000000, 0.000000, 0.000000, 1.000000, 0.000000, 0.000000)" id="fill-0-rumext-id-5"><g><rect width="11.453138542314264" height="8.924415454715373" style="fill: url(&quot;#fill-color-gradient_rumext-id-5_0&quot;);"/></g></pattern></defs><g class="fills" id="fills-c6f16b49-3f5a-80a6-8004-101c64eb2198"><path rx="0" ry="0" d="M28.362,34.198C27.362,34.236,26.372,34.187,25.435,33.790C24.049,33.202,23.030,32.263,22.734,30.729C22.456,29.290,22.924,28.050,23.945,27.032C25.254,25.723,26.874,25.219,28.696,25.291C30.289,25.354,31.694,25.888,32.818,27.036C34.964,29.226,34.355,32.412,31.566,33.686C30.813,34.030,30.023,34.195,29.197,34.198C28.919,34.199,28.640,34.198,28.362,34.198ZZM28.372,32.786C28.611,32.786,28.849,32.790,29.088,32.785C30.132,32.764,31.095,32.503,31.879,31.773C32.740,30.971,32.937,29.835,32.360,28.813C32.154,28.448,31.878,28.096,31.559,27.826C30.368,26.819,28.970,26.524,27.454,26.784C26.276,26.986,25.271,27.511,24.569,28.516C24.213,29.026,24.006,29.596,24.090,30.228C24.245,31.395,24.999,32.063,26.026,32.482C26.779,32.790,27.574,32.812,28.372,32.786ZZ" fill="url(#fill-0-rumext-id-5)"/></g></g><g id="shape-c6f16b49-3f5a-80a6-8004-101c64eb2199"><defs><linearGradient id="fill-color-gradient_rumext-id-6_0" x1="0.5" y1="0" x2="0.5" y2="1" gradientTransform="matrix(1.000000, 0.000000, 0.000000, 1.000000, 0.000000, 0.000000)"><stop offset="0" stop-color="#fdcd00" stop-opacity="1"/><stop offset="1" stop-color="#ff0107" stop-opacity="0.796875"/></linearGradient><pattern patternUnits="userSpaceOnUse" x="19.507492105702113" y="25.284247667557878" height="2.94245461233713" width="2.8081235355543868" data-loading="false" patternTransform="matrix(1.000000, 0.000000, 0.000000, 1.000000, 0.000000, 0.000000)" id="fill-0-rumext-id-6"><g><rect width="2.8081235355543868" height="2.94245461233713" style="fill: url(&quot;#fill-color-gradient_rumext-id-6_0&quot;);"/></g></pattern></defs><g class="fills" id="fills-c6f16b49-3f5a-80a6-8004-101c64eb2199"><path rx="0" ry="0" d="M22.316,26.626C22.307,27.442,21.605,28.230,20.890,28.227C20.064,28.222,19.470,27.651,19.509,26.848C19.549,26.049,20.111,25.272,20.985,25.284C21.747,25.295,22.324,25.871,22.316,26.626ZZ" fill="url(#fill-0-rumext-id-6)"/></g></g><g id="shape-c6f16b49-3f5a-80a6-8004-101c64eb219a"><defs><linearGradient id="fill-color-gradient_rumext-id-7_0" x1="0.5" y1="0" x2="0.5" y2="1" gradientTransform="matrix(1.000000, 0.000000, 0.000000, 1.000000, 0.000000, 0.000000)"><stop offset="0" stop-color="#fdcd00" stop-opacity="1"/><stop offset="1" stop-color="#ff0107" stop-opacity="0.796875"/></linearGradient><pattern patternUnits="userSpaceOnUse" x="34.456399249750575" y="25.284247667557878" height="2.9434159879384936" width="2.80969065630984" data-loading="false" patternTransform="matrix(1.000000, 0.000000, 0.000000, 1.000000, 0.000000, 0.000000)" id="fill-0-rumext-id-7"><g><rect width="2.80969065630984" height="2.9434159879384936" style="fill: url(&quot;#fill-color-gradient_rumext-id-7_0&quot;);"/></g></pattern></defs><g class="fills" id="fills-c6f16b49-3f5a-80a6-8004-101c64eb219a"><path rx="0" ry="0" d="M34.456,26.611C34.453,25.872,35.026,25.304,35.774,25.285C36.666,25.262,37.246,26.087,37.266,26.894C37.284,27.657,36.694,28.219,35.896,28.228C35.164,28.236,34.460,27.445,34.456,26.611ZZ" fill="url(#fill-0-rumext-id-7)"/></g></g><g id="shape-c6f16b49-3f5a-80a6-8004-101c64eb219b"><defs><linearGradient id="fill-color-gradient_rumext-id-8_0" x1="0.5" y1="0" x2="0.5" y2="1" gradientTransform="matrix(1.000000, 0.000000, 0.000000, 1.000000, 0.000000, 0.000000)"><stop offset="0" stop-color="#fdcd00" stop-opacity="1"/><stop offset="1" stop-color="#ff0107" stop-opacity="0.796875"/></linearGradient><pattern patternUnits="userSpaceOnUse" x="27.375337970990586" y="28.434897201069447" height="2.7127415161817794" width="2.563343463501724" data-loading="false" patternTransform="matrix(1.000000, 0.000000, 0.000000, 1.000000, 0.000000, 0.000000)" id="fill-0-rumext-id-8"><g><rect width="2.563343463501724" height="2.7127415161817794" style="fill: url(&quot;#fill-color-gradient_rumext-id-8_0&quot;);"/></g></pattern></defs><g class="fills" id="fills-c6f16b49-3f5a-80a6-8004-101c64eb219b"><path rx="0" ry="0" d="M28.665,31.147C28.140,31.147,27.941,30.907,28.043,30.396C28.065,30.289,28.116,30.178,28.102,30.076C28.088,29.966,28.035,29.843,27.959,29.763C27.853,29.649,27.697,29.582,27.585,29.474C27.350,29.248,27.314,28.962,27.469,28.717C27.620,28.479,27.937,28.345,28.197,28.504C28.535,28.708,28.806,28.678,29.134,28.497C29.386,28.357,29.692,28.481,29.846,28.702C29.994,28.915,29.963,29.224,29.767,29.442C29.715,29.501,29.659,29.571,29.590,29.599C29.188,29.761,29.184,30.048,29.271,30.417C29.388,30.912,29.171,31.148,28.665,31.147ZZ" fill="url(#fill-0-rumext-id-8)"/></g></g></g></g></svg>